<svg width="13" height="10" viewBox="0 0 13 10" fill="none" xmlns="http://www.w3.org/2000/svg">
<path fill-rule="evenodd" clip-rule="evenodd" d="M6.88071 0.194366C6.83793 0.134357 6.78097 0.0853497 6.71469 0.0515103C6.64841 0.0176709 6.57476 0 6.5 0C6.42524 0 6.35159 0.0176709 6.28531 0.0515103C6.21903 0.0853497 6.16207 0.134357 6.11929 0.194366L3.18686 4.29588L0.793001 1.95151C0.728066 1.88778 0.645264 1.84436 0.555092 1.82676C0.46492 1.80915 0.371439 1.81815 0.286499 1.85262C0.20156 1.88709 0.128987 1.94547 0.077982 2.02036C0.0269769 2.09526 -0.000163767 2.18329 7.43462e-07 2.2733V8.18195C7.43462e-07 8.66413 0.195663 9.12656 0.543945 9.46751C0.892227 9.80846 1.3646 10 1.85714 10H11.1429C11.6354 10 12.1078 9.80846 12.4561 9.46751C12.8043 9.12656 13 8.66413 13 8.18195V2.2733C13.0002 2.18329 12.973 2.09526 12.922 2.02036C12.871 1.94547 12.7984 1.88709 12.7135 1.85262C12.6286 1.81815 12.5351 1.80915 12.4449 1.82676C12.3547 1.84436 12.2719 1.88778 12.207 1.95151L9.81314 4.29588L6.88071 0.194366Z" fill="#12053F"/>
</svg>
